# Made in Blockbench 4.10.0
mtllib dragon_teeth.mtl

o cube
v 0.6171875 1.6640625 0.5234375
v 0.6171875 1.6640625 0.4765625
v 0.6171875 1.6171875 0.5234375
v 0.6171875 1.6171875 0.4765625
v 0.38281249999999994 1.6640625 0.5234375
v 0.38281249999999994 1.6640625 0.4765625
v 0.38281249999999994 1.6171875 0.5234375
v 0.38281249999999994 1.6171875 0.4765625
v 0.3359375000000001 1.6640625 0.5234375
v 0.3359375000000001 1.6640625 0.4765625
v 0.3828125000000001 1.6640625 0.5234375
v 0.3828125000000001 1.6640625 0.4765625
v 0.33593750000000006 1.4953125 0.5234375
v 0.33593750000000006 1.4953125 0.4765625
v 0.38281250000000006 1.4953125 0.5234375
v 0.38281250000000006 1.4953125 0.4765625
v 0.6171875000000001 1.6640625 0.5234375
v 0.6171875000000001 1.6640625 0.4765625
v 0.6640625000000001 1.6640625 0.5234375
v 0.6640625000000001 1.6640625 0.4765625
v 0.6171875 1.4953125 0.5234375
v 0.6171875 1.4953125 0.4765625
v 0.6640625 1.4953125 0.5234375
v 0.6640625 1.4953125 0.4765625
v 0.7109375 1.5 0.7109375
v 0.7109375 1.5 0.2890625
v 0.28906249999999994 1.5 0.7109375
v 0.28906249999999994 1.5 0.2890625
v 1.15625 0 1.15625
v 1.15625 0 -0.15625
v -0.15625 0 1.15625
v -0.15625 0 -0.15625
v -0.2500000000000002 0.09375 1.1796875
v 0.21874999999999994 1.453125 0.7109375
v -0.2500000000000002 0.09375 -0.1796875000000001
v 0.21874999999999994 1.453125 0.2890625
v 1.25 0.09375 1.1796875
v 0.78125 1.453125 0.7109375
v 1.25 0.09375 -0.1796875000000001
v 0.78125 1.453125 0.2890625
v 1.1796875 0.09375 -0.25
v 0.7109375 1.453125 0.21875
v -0.1796875000000001 0.09375 -0.25
v 0.28906249999999994 1.453125 0.21875
v 1.1796875 0.09375 1.25
v 0.7109375 1.453125 0.78125
v -0.1796875000000001 0.09375 1.25
v 0.28906249999999994 1.453125 0.78125
vt 0.046875 0.984375
vt 0.046875 1
vt 0 1
vt 0 0.984375
vt 0.28125 0.859375
vt 0.28125 0.875
vt 0.234375 0.875
vt 0.234375 0.859375
vt 0.046875 0.734375
vt 0.046875 0.75
vt 0 0.75
vt 0 0.734375
vt 0.109375 0.734375
vt 0.109375 0.75
vt 0.0625 0.75
vt 0.0625 0.734375
vt 0.25 0.84375
vt 0.234375 0.84375
vt 0.234375 0.828125
vt 0.25 0.828125
vt 0.171875 0.75
vt 0.15625 0.75
vt 0.15625 0.71875
vt 0.171875 0.71875
vt 0.203125 0.75
vt 0.1875 0.75
vt 0.1875 0.71875
vt 0.203125 0.71875
vt 0.015625 0.96875
vt 0 0.96875
vt 0 0.9375
vt 0.015625 0.9375
vt 0 0.890625
vt 0.015625 0.890625
vt 0.015625 0.921875
vt 0 0.921875
vt 0.078125 0.71875
vt 0.0625 0.71875
vt 0.0625 0.703125
vt 0.078125 0.703125
vt 0.015625 0.71875
vt 0 0.71875
vt 0 0.6875
vt 0.015625 0.6875
vt 0.046875 0.71875
vt 0.03125 0.71875
vt 0.03125 0.6875
vt 0.046875 0.6875
vt 0.203125 1
vt 0.1875 1
vt 0.1875 0.96875
vt 0.203125 0.96875
vt 0.125 0.71875
vt 0.140625 0.71875
vt 0.140625 0.75
vt 0.125 0.75
vt 0.15234375 0.6875
vt 0.08203125 0.6875
vt 0.00390625 0.453125
vt 0.23046875 0.453125
vt 0.62109375 0.40625
vt 0.54296875 0.640625
vt 0.47265625 0.640625
vt 0.39453125 0.40625
vt 0.30859375 0.915603125
vt 0.30859375 0.985915625
vt 0.23828125 0.985915625
vt 0.23828125 0.915603125
vt 0.40625 0.78125
vt 0.625 0.78125
vt 0.625 1
vt 0.40625 1
vt 0.23046875 0.765625
vt 0.15234375 1
vt 0.08203125 1
vt 0.00390625 0.765625
vt 0.35546875 0.84375
vt 0.28515625 0.84375
vt 0.20703125 0.609375
vt 0.43359375 0.609375
vt 0.80859375 0.970290625
vt 0.80859375 0.899978125
vt 0.822678125 0.899978125
vt 0.822678125 0.970290625
vt 0.833571875 0.899978125
vt 0.84765625 0.899978125
vt 0.84765625 0.970290625
vt 0.8335718750000001 0.970290625
vt 0.73046875 0.79214375
vt 0.73046875 0.806228125
vt 0.66015625 0.806228125
vt 0.66015625 0.79214375
vt 0.75390625 0.7827906250000001
vt 0.82421875 0.782790625
vt 0.82421875 0.796875
vt 0.75390625 0.796875
vt 0.45703125 0.671875
vt 0.4609375 0.65625
vt 0.6796875 0.65625
vt 0.68359375 0.671875
vt 0.0078125 0.421875
vt 0.2265625 0.421875
vt 0.23046875 0.4375
vt 0.00390625 0.4375
vt 0.4453125 0.734375
vt 0.6640625 0.734375
vt 0.66796875 0.756471875
vt 0.44140625 0.756471875
vt 0.45703125 0.709596875
vt 0.4609375 0.6875
vt 0.6796875 0.6875
vt 0.68359375 0.709596875
vt 0.25 0.34375
vt 0.265625 0.34375
vt 0.265625 0.59375
vt 0.25 0.59375
vt 0.3125 0.59375
vt 0.3125 0.34375
vt 0.328125 0.34375
vt 0.328125 0.59375
vt 0.34375 0.59375
vt 0.34375 0.34375
vt 0.359375 0.34375
vt 0.359375 0.59375
vt 0.28125 0.34375
vt 0.296875 0.34375
vt 0.296875 0.59375
vt 0.28125 0.59375
vt 0.6640625 0.734375
vt 0.6820689089910995 0.747764504014891
vt 0.6679686681889097 0.7564714122110239
vt 0.4453125 0.734375
vt 0.4414063318110904 0.7564714122110239
vt 0.4273060910089005 0.747764504014891
vt 0.4609375 0.6875
vt 0.4570313318110904 0.7095964122110239
vt 0.4429310910089005 0.700889504014891
vt 0.6796875 0.6875
vt 0.6976939089910995 0.700889504014891
vt 0.6835936681889097 0.7095964122110239
vt 0.69921875 0.665603125
vt 0.703553646631166 0.6522025214285216
vt 0.713303049942944 0.665603125
vt 0.61328125 0.587478125
vt 0.599196950057056 0.587478125
vt 0.608946353368834 0.5740775214285216
vt 0.57421875 0.626540625
vt 0.588303049942944 0.6265406250000001
vt 0.578553646631166 0.6399412285714783
vt 0.62890625 0.626540625
vt 0.624571353368834 0.6399412285714783
vt 0.614821950057056 0.6265406250000001
vn 0 1 0
vn 0 -1 0
vn 0 0 1
vn 0 0 -1
vn 0 1 0
vn -1 3.2895497025930557e-16 0
vn 1 -3.2895497025930557e-16 0
vn 0 0 1
vn 0 0 -1
vn 0 1 0
vn -1 3.2895497025930557e-16 0
vn 1 -3.2895497025930557e-16 0
vn 0 0 1
vn 0 0 -1
vn 0.9453729816262721 0.32599068331940423 0
vn -0.9453729816262721 0.3259906833194043 0
vn 0 1 0
vn 0 -1 0
vn 0 0.32599068331940423 0.9453729816262721
vn 0 0.3259906833194042 -0.9453729816262721
vn 0.5547001962252291 0.8320502943378437 0
vn -0.5547001962252291 0.8320502943378437 0
vn 0 0.8320502943378437 0.5547001962252291
vn 0 0.8320502943378437 -0.5547001962252291
vn 0.7071067811865476 -0.7071067811865476 0
vn -0.7071067811865467 -0.7071067811865483 0
vn 0 -0.7071067811865476 0.7071067811865476
vn 0 -0.7071067811865476 -0.7071067811865476
vn 0.6355615789624307 0.4383183303189178 -0.6355615789624307
vn 0.6355615789624312 0.4383183303189178 0.6355615789624304
vn -0.6355615789624297 0.43831833031891776 -0.6355615789624319
vn -0.6355615789624297 0.4383183303189178 0.6355615789624317
vn 0.5298129428260173 -0.6622661785325222 0.5298129428260173
vn -0.5298129428260163 -0.6622661785325227 0.529812942826018
vn 0.5298129428260173 -0.6622661785325222 -0.5298129428260173
vn -0.5298129428260163 -0.6622661785325227 -0.529812942826018
vn 0.48507125007266594 0.7276068751089989 0.48507125007266594
vn -0.48507125007266594 0.7276068751089989 0.48507125007266594
vn 0.48507125007266594 0.7276068751089989 -0.48507125007266594
vn -0.48507125007266594 0.7276068751089989 -0.48507125007266594
usemtl m_40ddb3f7-b960-0c4a-147f-2010aa6221ab
f 1/1/1 2/2/1 6/3/1 5/4/1
f 4/5/2 3/6/2 7/7/2 8/8/2
f 3/9/3 1/10/3 5/11/3 7/12/3
f 8/13/4 6/14/4 2/15/4 4/16/4
f 12/17/5 10/18/5 9/19/5 11/20/5
f 9/21/6 10/22/6 14/23/6 13/24/6
f 12/25/7 11/26/7 15/27/7 16/28/7
f 11/29/8 9/30/8 13/31/8 15/32/8
f 16/33/9 14/34/9 10/35/9 12/36/9
f 20/37/10 18/38/10 17/39/10 19/40/10
f 17/41/11 18/42/11 22/43/11 21/44/11
f 20/45/12 19/46/12 23/47/12 24/48/12
f 19/49/13 17/50/13 21/51/13 23/52/13
f 24/53/14 22/54/14 18/55/14 20/56/14
f 40/57/15 38/58/15 37/59/15 39/60/15
f 33/61/16 34/62/16 36/63/16 35/64/16
f 25/65/17 26/66/17 28/67/17 27/68/17
f 32/69/18 30/70/18 29/71/18 31/72/18
f 45/73/19 46/74/19 48/75/19 47/76/19
f 44/77/20 42/78/20 41/79/20 43/80/20
f 26/81/21 25/82/21 38/83/21 40/84/21
f 34/85/22 27/86/22 28/87/22 36/88/22
f 46/89/23 25/90/23 27/91/23 48/92/23
f 28/93/24 26/94/24 42/95/24 44/96/24
f 37/97/25 29/98/25 30/99/25 39/100/25
f 32/101/26 31/102/26 33/103/26 35/104/26
f 31/105/27 29/106/27 45/107/27 47/108/27
f 41/109/28 30/110/28 32/111/28 43/112/28
f 39/113/29 41/114/29 42/115/29 40/116/29
f 46/117/30 45/118/30 37/119/30 38/120/30
f 44/121/31 43/122/31 35/123/31 36/124/31
f 33/125/32 47/126/32 48/127/32 34/128/32
f 29/129/33 37/130/33 45/131/33
f 31/132/34 47/133/34 33/134/34
f 30/135/35 41/136/35 39/137/35
f 32/138/36 35/139/36 43/140/36
f 25/141/37 46/142/37 38/143/37
f 27/144/38 34/145/38 48/146/38
f 26/147/39 40/148/39 42/149/39
f 28/150/40 44/151/40 36/152/40